<?xml version="1.0" standalone="no"?><!DOCTYPE svg PUBLIC "-//W3C//DTD SVG 1.1//EN" "http://www.w3.org/Graphics/SVG/1.1/DTD/svg11.dtd"><svg t="1585723724377" class="icon" viewBox="0 0 1024 1024" version="1.1" xmlns="http://www.w3.org/2000/svg" p-id="30909" xmlns:xlink="http://www.w3.org/1999/xlink" width="32" height="32"><defs><style type="text/css">@font-face { font-family: element-icons; src: url("chrome-extension://moombeodfomdpjnpocobemoiaemednkg/fonts/element-icons.woff") format("woff"), url("chrome-extension://moombeodfomdpjnpocobemoiaemednkg/fonts/element-icons.ttf ") format("truetype"); }
</style></defs><path d="M780.13269439 136.61422911H243.86730561c-88.48378899 0-160.87961633 72.39582734-160.87961633 160.87961633v351.25382845c0 88.48378899 72.39582734 160.87961633 160.87961633 160.87961629h77.75848227c2.68132747 0 5.36265335 2.68132747 5.36265336 5.36265335v174.28625209c0 21.45061498 24.13194244 29.4945958 40.21990407 16.08796161l182.33023132-193.05553957s2.68132747-2.68132747 5.36265491-2.68132748H780.13269439c88.48378899 0 160.87961633-72.39582734 160.87961633-160.87961629V297.49384544c0-88.48378899-72.39582734-160.87961633-160.87961633-160.87961633z" fill="#999999" p-id="30910"></path><path d="M396.70294112 750.63809701c0-2.68132747-2.68132747-8.04398081-5.36265334-8.04398081h-75.07715483c-85.80246151 0-155.51696297-75.07715482-155.51696138-168.92359713V203.64740154c0-16.08796163 2.68132747-32.17592326 5.36265336-45.58255744-48.2638849 26.81326991-80.43980815 80.43980815-80.43980818 139.42900134v351.25382845c0 88.48378899 72.39582734 160.87961633 160.87961633 160.87961629H324.30711377c2.68132747 0 5.36265335 2.68132747 5.36265492 5.36265335v174.28625209c0 21.45061498 24.13194244 29.4945958 40.21990411 16.08796161l29.49459578-29.49459738v-225.23146284h-2.68132746z" fill="#999999" p-id="30911"></path><path d="M694.33023131 345.75773033c-40.21990407-40.21990407-107.25307806-40.21990407-147.47298059 0l-24.13194244 24.13194247c-5.36265335 5.36265335-13.40663417 5.36265335-18.76928909 0l-21.45061499-21.45061658c-40.21990407-40.21990407-107.25307806-40.21990407-147.47298214 0s-40.21990407 107.25307806 0 147.47298215l171.60492459 171.6049246c5.36265335 5.36265335 13.40663417 5.36265335 18.76928752 0l171.60492459-171.6049246c37.53857663-42.90123154 37.53857663-109.93440397-2.68132745-150.15430804z" fill="#999999" p-id="30912"></path><path d="M694.33023131 345.75773033c-40.21990407-40.21990407-107.25307806-40.21990407-147.47298059 0l-24.13194244 24.13194247c-5.36265335 5.36265335-13.40663417 5.36265335-18.76928909 0l-21.45061499-21.45061658c-40.21990407-40.21990407-107.25307806-40.21990407-147.47298214 0s-40.21990407 107.25307806 0 147.47298215l171.60492459 171.6049246c5.36265335 5.36265335 13.40663417 5.36265335 18.76928752 0l171.60492459-171.6049246c37.53857663-42.90123154 37.53857663-109.93440397-2.68132745-150.15430804z" fill="#999999" p-id="30913"></path><path d="M385.97763441 493.23071091c-40.21990407-40.21990407-40.21990407-107.25307806 0-147.47298058 13.40663417-13.40663417 29.4945958-21.45061498 45.58255744-26.81326991-34.85725072-10.72530828-75.07715482 0-101.89042316 26.81326991-40.21990407 40.21990407-40.21990407 107.25307806 0 147.47298058l171.60492303 171.60492459c5.36265335 5.36265335 13.40663417 5.36265335 18.76928909 0l16.08796163-16.08796161-150.15430803-155.51696298z" fill="#999999" p-id="30914"></path></svg>