<?xml version="1.0" standalone="no"?><!DOCTYPE svg PUBLIC "-//W3C//DTD SVG 1.1//EN" "http://www.w3.org/Graphics/SVG/1.1/DTD/svg11.dtd"><svg t="1585722522392" class="icon" viewBox="0 0 1024 1024" version="1.1" xmlns="http://www.w3.org/2000/svg" p-id="21483" xmlns:xlink="http://www.w3.org/1999/xlink" width="32" height="32"><defs><style type="text/css">@font-face { font-family: element-icons; src: url("chrome-extension://moombeodfomdpjnpocobemoiaemednkg/fonts/element-icons.woff") format("woff"), url("chrome-extension://moombeodfomdpjnpocobemoiaemednkg/fonts/element-icons.ttf ") format("truetype"); }
</style></defs><path d="M819.746133 470.7328A159.812267 159.812267 0 0 0 853.333333 373.179733C853.333333 280.1664 772.471467 204.8 672.733867 204.8 602.589867 204.8 541.9008 242.176 512 296.618667 482.0992 242.176 421.410133 204.8 351.266133 204.8 251.562667 204.8 170.666667 280.1664 170.666667 373.179733c0 36.386133 12.526933 70.0416 33.621333 97.553067l281.941333 303.342933c13.7216 14.677333 37.819733 14.677333 51.541334 0l281.941333-303.342933z" fill="currentColor" p-id="21484"></path><path d="M718.677333 443.733333a21.128533 21.128533 0 0 1-12.014933-3.720533 20.309333 20.309333 0 0 1-5.188267-28.672c4.881067-6.826667 7.441067-14.848 7.441067-23.210667 0-21.9136-17.646933-39.765333-39.389867-39.765333A20.821333 20.821333 0 0 1 648.533333 327.7824 20.821333 20.821333 0 0 1 669.525333 307.2 81.271467 81.271467 0 0 1 750.933333 388.164267c0 16.827733-5.188267 33.006933-15.018666 46.762666a21.0944 21.0944 0 0 1-17.237334 8.8064" fill="#FFFFFF" p-id="21485"></path></svg>