<?xml version="1.0" standalone="no"?><!DOCTYPE svg PUBLIC "-//W3C//DTD SVG 1.1//EN" "http://www.w3.org/Graphics/SVG/1.1/DTD/svg11.dtd"><svg t="1587029141539" class="icon" viewBox="0 0 1024 1024" version="1.1" xmlns="http://www.w3.org/2000/svg" p-id="13786" xmlns:xlink="http://www.w3.org/1999/xlink" width="32" height="32"><defs><style type="text/css">@font-face { font-family: element-icons; src: url("chrome-extension://moombeodfomdpjnpocobemoiaemednkg/fonts/element-icons.woff") format("woff"), url("chrome-extension://moombeodfomdpjnpocobemoiaemednkg/fonts/element-icons.ttf ") format("truetype"); }
</style></defs><path d="M512 512m-512 0a512 512 0 1 0 1024 0 512 512 0 1 0-1024 0Z" fill="#FC425F" p-id="13787"></path><path d="M512 354.461538a39.384615 39.384615 0 0 1 39.384615 39.384616v78.769231h78.769231a39.384615 39.384615 0 1 1 0 78.76923h-78.769231v78.769231a39.384615 39.384615 0 1 1-78.76923 0v-78.769231h-78.769231a39.384615 39.384615 0 1 1 0-78.76923h78.769231v-78.769231a39.384615 39.384615 0 0 1 39.384615-39.384616z" fill="#FFFFFF" p-id="13788"></path></svg>