<?xml version="1.0" standalone="no"?><!DOCTYPE svg PUBLIC "-//W3C//DTD SVG 1.1//EN" "http://www.w3.org/Graphics/SVG/1.1/DTD/svg11.dtd"><svg t="1585648299693" class="icon" viewBox="0 0 1024 1024" version="1.1" xmlns="http://www.w3.org/2000/svg" p-id="15483" xmlns:xlink="http://www.w3.org/1999/xlink" width="32" height="32"><defs><style type="text/css">@font-face { font-family: element-icons; src: url("chrome-extension://moombeodfomdpjnpocobemoiaemednkg/fonts/element-icons.woff") format("woff"), url("chrome-extension://moombeodfomdpjnpocobemoiaemednkg/fonts/element-icons.ttf ") format("truetype"); }
</style></defs><path d="M148.48 0m38.4 0l0 0q38.4 0 38.4 38.4l0 122.88q0 38.4-38.4 38.4l0 0q-38.4 0-38.4-38.4l0-122.88q0-38.4 38.4-38.4Z" fill="#fe4565" p-id="15484"></path><path d="M148.48 317.44m38.4 0l0 0q38.4 0 38.4 38.4l0 220.16q0 38.4-38.4 38.4l0 0q-38.4 0-38.4-38.4l0-220.16q0-38.4 38.4-38.4Z" fill="#fe4565" p-id="15485"></path><path d="M148.48 747.52m38.4 0l0 0q38.4 0 38.4 38.4l0 199.68q0 38.4-38.4 38.4l0 0q-38.4 0-38.4-38.4l0-199.68q0-38.4 38.4-38.4Z" fill="#fe4565" p-id="15486"></path><path d="M184.32 373.76C119.28064 373.76 66.56 321.03936 66.56 256s52.72064-117.76 117.76-117.76 117.76 52.72064 117.76 117.76-52.72064 117.76-117.76 117.76z m2.56-61.44C216.57088 312.32 240.64 288.25088 240.64 258.56S216.57088 204.8 186.88 204.8 133.12 228.86912 133.12 258.56 157.18912 312.32 186.88 312.32zM184.32 793.6c-65.03936 0-117.76-52.72064-117.76-117.76s52.72064-117.76 117.76-117.76 117.76 52.72064 117.76 117.76-52.72064 117.76-117.76 117.76z m2.56-61.44c29.69088 0 53.76-24.06912 53.76-53.76S216.57088 624.64 186.88 624.64 133.12 648.70912 133.12 678.4 157.18912 732.16 186.88 732.16z" fill="#fe4565" p-id="15487"></path><path d="M394.24 158.72m38.4 0l486.4 0q38.4 0 38.4 38.4l0 0q0 38.4-38.4 38.4l-486.4 0q-38.4 0-38.4-38.4l0 0q0-38.4 38.4-38.4Z" fill="#fe4565" p-id="15488"></path><path d="M397.0304 312.32m38.4 0l343.04 0q38.4 0 38.4 38.4l0 0q0 38.4-38.4 38.4l-343.04 0q-38.4 0-38.4-38.4l0 0q0-38.4 38.4-38.4Z" fill="#fe4565" p-id="15489"></path><path d="M394.24 588.8m38.4 0l486.4 0q38.4 0 38.4 38.4l0 0q0 38.4-38.4 38.4l-486.4 0q-38.4 0-38.4-38.4l0 0q0-38.4 38.4-38.4Z" fill="#fe4565" p-id="15490"></path><path d="M394.24 742.4m38.4 0l343.04 0q38.4 0 38.4 38.4l0 0q0 38.4-38.4 38.4l-343.04 0q-38.4 0-38.4-38.4l0 0q0-38.4 38.4-38.4Z" fill="#fe4565" p-id="15491"></path></svg>